<?xml version="1.0" standalone="no"?>
<!DOCTYPE svg PUBLIC "-//W3C//DTD SVG 20010904//EN"
 "http://www.w3.org/TR/2001/REC-SVG-20010904/DTD/svg10.dtd">
<svg version="1.0" xmlns="http://www.w3.org/2000/svg"
 width="16.000000pt" height="16.000000pt" viewBox="0 0 16.000000 16.000000"
 preserveAspectRatio="xMidYMid meet">
<metadata>
Created by potrace 1.11, written by Peter Selinger 2001-2013
</metadata>
<g transform="translate(0.000000,16.000000) scale(0.003712,-0.003712)"
fill="#000000" stroke="none">
<path d="M1930 3809 c0 -5 5 -7 10 -4 6 3 10 8 10 11 0 2 -4 4 -10 4 -5 0 -10
-5 -10 -11z"/>
<path d="M1935 3781 c-3 -5 -2 -12 3 -15 5 -3 9 1 9 9 0 17 -3 19 -12 6z"/>
<path d="M2135 3770 c-3 -5 -1 -10 4 -10 6 0 11 5 11 10 0 6 -2 10 -4 10 -3 0
-8 -4 -11 -10z"/>
<path d="M2106 3751 c-3 -5 1 -11 9 -14 9 -4 12 -1 8 9 -6 16 -10 17 -17 5z"/>
<path d="M1542 3736 c-4 -7 -18 -20 -32 -29 -13 -9 -21 -17 -16 -17 5 0 -3 -9
-18 -21 -20 -16 -26 -29 -26 -59 l0 -39 -32 10 c-18 6 -40 12 -49 14 -10 2
-38 -18 -68 -48 l-51 -51 0 -333 c0 -209 -4 -333 -10 -333 -5 0 -67 16 -137
35 -70 19 -135 35 -143 35 -18 -1 -81 -56 -101 -90 -9 -14 -15 -36 -14 -48 2
-21 -1 -23 -26 -18 -16 3 -42 9 -59 12 -16 4 -30 9 -30 13 0 3 -14 7 -31 7
-17 1 -34 5 -38 10 -3 5 -17 9 -31 10 -14 0 -36 4 -50 8 -22 6 -33 -1 -78 -45
l-52 -51 0 -303 0 -303 28 -5 c67 -13 87 -19 94 -30 5 -9 8 -8 8 3 0 9 3 11 8
5 4 -5 16 -12 27 -13 11 -2 22 -6 24 -8 11 -10 9 -79 -2 -93 -9 -11 -9 -13 0
-8 9 6 12 -3 11 -30 0 -21 0 -89 1 -151 1 -124 0 -122 77 -135 16 -3 49 -12
74 -19 l45 -14 3 -101 c2 -95 4 -102 25 -109 28 -10 47 -15 69 -18 9 -1 24 -9
34 -17 12 -9 15 -10 10 -1 -6 10 -1 10 26 -1 32 -13 33 -16 34 -70 1 -36 -3
-57 -10 -57 -8 0 -8 -2 0 -8 6 -4 11 -18 11 -32 0 -14 1 -73 2 -132 l1 -107
58 -16 c177 -50 201 -58 195 -69 -4 -6 0 -6 9 1 8 7 18 10 22 6 3 -4 12 -8 19
-9 7 -1 31 -7 54 -13 42 -11 42 -12 41 -59 -1 -66 0 -72 14 -72 9 0 9 3 1 11
-8 8 -8 20 -2 36 6 16 5 22 -1 18 -6 -3 -10 -1 -10 4 0 6 4 11 10 11 5 0 7 6
4 13 -3 8 2 14 11 14 8 0 15 -4 15 -8 0 -4 9 -5 20 -2 16 4 20 0 20 -20 0 -29
15 -43 26 -26 4 8 3 9 -4 5 -8 -5 -12 1 -12 15 0 18 2 19 15 9 12 -10 15 -10
15 0 0 9 4 9 17 -1 9 -8 26 -14 37 -14 13 -1 20 -6 18 -15 -10 -41 -10 -50 0
-50 7 0 7 -4 -1 -13 -6 -8 -8 -16 -5 -20 10 -10 11 -57 1 -57 -5 0 -5 -5 2
-13 6 -8 8 -17 5 -20 -3 -3 14 -11 37 -17 50 -13 174 -46 427 -114 138 -38
176 -45 188 -35 8 6 17 9 21 5 3 -3 1 -6 -5 -6 -7 0 -12 -4 -12 -8 0 -8 123
-42 153 -42 9 0 17 5 17 10 0 6 18 27 40 47 28 26 40 45 40 64 0 15 6 29 14
32 22 9 76 -15 76 -33 1 -12 3 -12 11 3 8 13 14 15 30 7 10 -6 19 -7 19 -3 0
4 7 -2 16 -13 8 -10 13 -13 9 -6 -7 14 17 10 86 -13 37 -12 37 -12 88 42 41
43 51 59 51 88 0 34 8 43 24 28 4 -5 11 -8 14 -8 4 -1 19 -4 34 -8 23 -6 33 0
77 45 l51 53 0 134 0 134 29 -6 c16 -3 40 -9 55 -13 16 -4 26 -2 26 5 0 6 7
11 15 11 8 0 14 3 13 8 -2 4 12 22 30 41 23 24 32 43 32 67 0 30 2 32 27 28
15 -3 32 -9 38 -13 17 -12 31 -7 60 21 15 15 32 25 38 21 5 -3 7 -1 4 4 -4 6
2 18 13 28 18 16 20 31 20 157 0 108 3 138 13 132 10 -6 10 -4 0 7 -7 7 -13
32 -13 56 0 28 4 43 13 43 9 0 9 2 -1 8 -16 11 -14 193 2 204 8 5 7 8 -1 8
-10 0 -13 28 -13 104 l0 105 -52 14 c-29 8 -74 20 -100 27 l-48 13 0 64 c0 43
-5 69 -14 79 -8 8 -17 10 -20 5 -4 -5 0 -11 6 -13 14 -5 20 -128 7 -128 -13 0
-18 29 -6 34 9 3 8 5 -1 5 -8 1 -10 6 -6 13 14 22 12 52 -4 68 -14 13 -15 13
-9 -3 5 -12 3 -16 -5 -11 -7 5 -8 3 -3 -6 6 -9 4 -11 -5 -5 -9 5 -11 4 -6 -3
4 -7 1 -12 -6 -12 -9 0 -9 -3 2 -10 8 -5 10 -10 4 -10 -7 0 -15 -7 -18 -16 -4
-10 -2 -13 6 -8 7 4 8 3 4 -4 -4 -7 -11 -12 -16 -12 -11 0 -9 41 3 58 5 6 7
12 4 12 -3 0 7 14 23 32 22 23 26 34 17 40 -7 4 -13 2 -15 -7 -2 -8 -8 -15
-13 -15 -10 0 -5 13 13 37 7 9 16 5 34 -15 l23 -27 1 29 c0 21 -4 27 -16 22
-10 -4 -13 -2 -8 6 5 7 0 9 -14 6 -12 -3 -23 -1 -24 4 -2 6 -16 11 -31 11 -15
0 -27 3 -27 8 0 4 -8 8 -17 8 -23 -1 -135 36 -129 42 2 2 -5 5 -17 5 -12 1
-31 4 -42 7 -11 3 -28 6 -38 6 -10 1 -15 5 -12 11 3 6 -1 7 -9 4 -11 -4 -16 0
-16 10 0 9 6 16 13 16 8 0 7 3 -3 10 -13 8 -13 11 3 22 9 7 19 24 22 37 2 13
1 20 -3 17 -4 -4 -8 -12 -8 -17 -1 -5 -2 -13 -3 -19 0 -5 -5 -10 -9 -10 -13 0
-12 43 1 59 9 12 9 13 0 7 -7 -4 -13 -3 -13 3 0 5 6 12 13 14 9 4 9 6 0 6 -7
1 -13 6 -13 12 0 5 6 7 13 3 10 -6 10 -4 0 7 -19 20 -16 79 5 95 15 13 15 13
0 8 -15 -5 -17 15 -17 252 -1 162 -5 260 -11 264 -6 3 -51 17 -100 29 l-90 24
0 101 0 101 -150 39 c-83 21 -150 43 -150 48 0 5 -5 6 -10 3 -9 -6 -98 15
-140 32 -22 9 -28 10 -56 12 -16 1 -23 5 -18 13 4 6 3 8 -4 4 -15 -9 -253 53
-276 73 -14 11 -17 12 -11 2 6 -11 4 -13 -11 -7 -10 4 -68 21 -129 37 -60 15
-140 37 -178 47 -50 15 -69 16 -75 8z m1643 -1447 c4 -6 13 -8 21 -5 7 3 16 1
20 -5 3 -6 12 -8 20 -5 8 3 14 1 14 -5 0 -6 4 -8 9 -4 5 3 12 2 14 -2 7 -12
-21 -48 -30 -39 -4 4 -2 11 6 15 10 6 9 10 -5 15 -9 3 -19 4 -22 1 -3 -3 0 -5
7 -5 9 0 9 -5 1 -20 -6 -11 -15 -20 -21 -20 -6 0 -7 6 -3 12 15 25 11 46 -8
43 -10 -2 -18 2 -18 8 0 7 -4 6 -11 -3 -9 -12 -10 -11 -4 5 5 15 3 17 -6 8
-13 -13 -3 -37 12 -28 5 4 9 2 9 -4 0 -26 -32 -19 -38 8 -7 32 18 55 33 30z
m29 -61 c-3 -5 -9 -6 -14 -3 -9 6 -21 -20 -13 -29 4 -3 11 -6 17 -6 6 0 4 5
-4 11 -12 8 -10 9 7 4 12 -3 24 -1 28 5 4 7 13 7 27 -1 l20 -11 -21 -15 c-15
-10 -31 -12 -54 -7 -17 4 -36 8 -42 8 -5 1 -10 10 -10 21 0 11 6 19 12 18 7
-2 18 6 25 17 8 13 15 16 19 8 4 -7 5 -16 3 -20z m13 -77 c4 0 8 -11 10 -25 3
-20 0 -24 -19 -21 -44 7 -57 11 -65 20 -4 4 -2 5 5 1 7 -4 12 -2 12 6 0 9 3 9
10 -2 7 -11 10 -11 10 -2 0 7 5 10 10 7 6 -4 8 -11 5 -16 -3 -5 2 -6 11 -2 16
6 16 7 0 19 -10 7 -28 10 -42 8 -13 -2 -24 -1 -24 4 0 17 12 20 41 12 16 -5
32 -9 36 -9z m88 1 c0 -9 -4 -22 -7 -27 -3 -6 -4 -18 -3 -28 2 -10 -2 -16 -8
-14 -17 5 -15 30 3 44 12 10 12 12 1 13 -11 0 -11 3 -1 15 16 19 17 19 15 -3z
m-2637 -331 c-7 -9 -13 -18 -15 -20 -1 -2 -1 5 0 16 0 11 7 20 14 20 10 0 10
-4 1 -16z m32 -12 c0 -8 5 -7 16 1 8 8 14 9 13 4 -4 -23 2 -26 17 -8 15 18 15
18 5 -3 -15 -31 -13 -41 4 -19 8 11 17 18 19 15 2 -2 -2 -13 -10 -24 -15 -20
-15 -20 -30 0 -8 11 -19 20 -24 20 -5 0 -15 6 -21 13 -10 9 -10 12 -1 12 7 0
12 -5 12 -11z m-34 -34 c-9 -9 -16 -13 -16 -8 0 12 22 34 28 28 2 -2 -3 -11
-12 -20z m133 -7 c-22 -17 -22 -18 -4 -16 11 2 23 8 27 13 5 6 8 3 8 -7 0 -12
-7 -16 -27 -15 -16 1 -27 6 -25 10 1 4 2 12 2 17 0 6 7 10 16 10 9 0 12 5 8
12 -5 7 -3 8 6 3 10 -6 7 -13 -11 -27z m-102 -4 c-26 -14 -26 -16 -11 -39 18
-28 19 -28 43 -16 11 6 22 6 32 0 12 -9 12 -10 -1 -6 -8 2 -23 0 -32 -4 -22
-12 -45 -2 -51 23 -4 13 -10 17 -19 12 -7 -4 -2 5 11 19 14 15 32 27 40 27 10
-1 5 -7 -12 -16z m23 -14 c-8 -5 -19 -10 -25 -10 -5 0 -3 5 5 10 8 5 20 10 25
10 6 0 3 -5 -5 -10z m20 -15 c-7 -8 -20 -15 -29 -15 -11 1 -8 5 9 15 32 18 35
18 20 0z m60 -46 c11 -27 11 -32 -5 -47 -18 -16 -18 -16 -6 0 11 15 11 24 1
48 -7 16 -16 30 -21 30 -5 0 -9 5 -9 11 0 19 27 -8 40 -42z m25 12 c-6 -5 -25
10 -25 20 0 5 6 4 14 -3 8 -7 12 -15 11 -17z m-137 -20 c11 -7 10 -9 -3 -14
-9 -4 -13 -3 -10 2 3 5 -3 12 -12 14 -13 3 -14 5 -3 6 8 0 21 -3 28 -8z m65
-11 c-3 -11 -7 -20 -9 -20 -2 0 -4 9 -4 20 0 11 4 20 9 20 5 0 7 -9 4 -20z
m16 -24 c-9 -8 -10 -7 -5 7 3 10 7 24 7 30 1 7 3 4 6 -7 3 -10 -1 -23 -8 -30z
m-44 15 c-3 -6 -14 -10 -23 -10 -15 1 -15 2 1 6 9 2 17 9 17 15 0 6 3 9 6 5 3
-3 3 -10 -1 -16z m105 -25 c0 -3 -4 -8 -10 -11 -5 -3 -10 -1 -10 4 0 6 5 11
10 11 6 0 10 -2 10 -4z m245 -635 c3 -5 2 -12 -3 -15 -5 -3 -9 1 -9 9 0 17 3
19 12 6z m85 -11 c0 -5 -5 -10 -11 -10 -5 0 -7 5 -4 10 3 6 8 10 11 10 2 0 4
-4 4 -10z m1230 -416 c0 -8 -19 -13 -24 -6 -3 5 1 9 9 9 8 0 15 -2 15 -3z
m-35 -24 c-3 -5 -1 -10 6 -10 7 0 10 -3 6 -6 -9 -9 -28 6 -22 17 4 5 8 9 11 9
3 0 2 -4 -1 -10z m47 3 c-6 -2 -9 -10 -6 -15 4 -7 2 -8 -5 -4 -13 9 -5 26 12
25 9 0 8 -2 -1 -6z m119 -20 c13 -16 12 -17 -3 -4 -17 13 -22 21 -14 21 2 0
10 -8 17 -17z m-15 -25 c12 -14 13 -18 3 -10 -9 6 -18 10 -21 7 -2 -3 -5 2 -5
10 0 19 0 19 23 -7z m-132 -3 c-4 -8 -8 -15 -10 -15 -2 0 -4 7 -4 15 0 8 4 15
10 15 5 0 7 -7 4 -15z m36 -9 c0 -2 -7 -6 -15 -10 -8 -3 -15 -1 -15 4 0 6 7
10 15 10 8 0 15 -2 15 -4z m100 -21 c0 -12 -19 -12 -23 0 -4 9 -1 12 9 8 7 -3
14 -7 14 -8z m-137 -10 c4 -8 1 -17 -5 -21 -7 -4 -8 -3 -4 4 4 7 2 12 -4 12
-6 0 -8 5 -5 10 8 14 12 13 18 -5z m47 5 c0 -5 -2 -10 -4 -10 -3 0 -8 5 -11
10 -3 6 -1 10 4 10 6 0 11 -4 11 -10z m37 -5 c0 -8 -4 -12 -9 -9 -5 3 -6 10
-3 15 9 13 12 11 12 -6z m-177 -15 c0 -5 -5 -10 -11 -10 -5 0 -7 5 -4 10 3 6
8 10 11 10 2 0 4 -4 4 -10z m106 -22 c-9 -12 -16 -19 -16 -15 0 11 24 47 28
42 2 -2 -3 -14 -12 -27z m-31 3 c3 -5 2 -12 -3 -15 -5 -3 -9 1 -9 9 0 17 3 19
12 6z m70 -1 c3 -5 1 -10 -4 -10 -6 0 -11 5 -11 10 0 6 2 10 4 10 3 0 8 -4 11
-10z"/>
<path d="M3225 2194 c-19 -14 -19 -15 2 -11 26 4 38 13 26 20 -4 3 -17 -1 -28
-9z"/>
<path d="M1852 3721 c-11 -7 -11 -9 0 -14 9 -3 15 1 15 9 0 8 -1 14 -1 14 -1
0 -7 -4 -14 -9z"/>
<path d="M1895 3720 c3 -4 14 -10 25 -13 11 -3 18 -2 15 3 -3 4 -14 10 -25 13
-11 3 -18 2 -15 -3z"/>
<path d="M2077 3723 c-10 -9 -9 -23 1 -23 5 0 9 7 9 15 0 17 -1 18 -10 8z"/>
<path d="M1976 3703 c-6 -14 -5 -15 5 -6 7 7 10 15 7 18 -3 3 -9 -2 -12 -12z"/>
<path d="M2100 3716 c0 -2 8 -10 18 -17 15 -13 16 -12 3 4 -13 16 -21 21 -21
13z"/>
<path d="M2007 3689 c7 -7 15 -10 18 -7 3 3 -2 9 -12 12 -14 6 -15 5 -6 -5z"/>
<path d="M2066 3682 c-3 -6 -1 -14 5 -17 15 -10 25 3 12 16 -7 7 -13 7 -17 1z"/>
<path d="M2289 3673 c-13 -16 -12 -17 4 -4 9 7 17 15 17 17 0 8 -8 3 -21 -13z"/>
<path d="M2106 3671 c-3 -5 1 -11 9 -14 9 -4 12 -1 8 9 -6 16 -10 17 -17 5z"/>
<path d="M2030 3656 c0 -2 7 -7 16 -10 8 -3 12 -2 9 4 -6 10 -25 14 -25 6z"/>
<path d="M2147 3653 c-3 -5 6 -9 20 -10 19 -1 22 1 12 8 -17 11 -26 11 -32 2z"/>
<path d="M2070 3646 c0 -2 8 -10 18 -17 15 -13 16 -12 3 4 -13 16 -21 21 -21
13z"/>
<path d="M2241 3626 c-9 -11 -9 -16 1 -22 7 -4 10 -4 6 1 -4 4 -3 14 3 22 6 7
9 13 6 13 -2 0 -10 -6 -16 -14z"/>
<path d="M2130 3610 c0 -5 5 -10 11 -10 5 0 7 5 4 10 -3 6 -8 10 -11 10 -2 0
-4 -4 -4 -10z"/>
<path d="M710 2836 c0 -2 7 -7 16 -10 8 -3 12 -2 9 4 -6 10 -25 14 -25 6z"/>
<path d="M3050 2729 c0 -5 5 -7 10 -4 6 3 10 8 10 11 0 2 -4 4 -10 4 -5 0 -10
-5 -10 -11z"/>
<path d="M3115 2689 c-4 -6 -5 -12 -2 -15 2 -3 7 2 10 11 7 17 1 20 -8 4z"/>
<path d="M3065 2640 c-3 -6 1 -7 9 -4 18 7 21 14 7 14 -6 0 -13 -4 -16 -10z"/>
<path d="M3033 2625 c0 -8 4 -15 9 -15 4 0 8 4 8 9 0 6 -4 12 -8 15 -5 3 -9
-1 -9 -9z"/>
<path d="M2993 2541 c-9 -14 -8 -18 3 -18 7 0 11 4 8 8 -2 4 1 9 8 11 7 3 8 7
2 11 -5 3 -15 -2 -21 -12z"/>
<path d="M3036 2542 c-3 -5 1 -9 9 -9 8 0 12 4 9 9 -3 4 -7 8 -9 8 -2 0 -6 -4
-9 -8z"/>
<path d="M3039 2511 c11 -7 11 -9 0 -14 -9 -3 -10 -6 -2 -6 6 -1 15 4 18 9 5
8 12 7 23 -2 14 -10 15 -10 5 2 -7 7 -23 15 -35 17 -16 2 -19 0 -9 -6z"/>
<path d="M3124 2505 c-4 -8 -10 -12 -15 -9 -5 3 -8 0 -7 -8 2 -7 -3 -12 -9
-10 -7 1 -13 -2 -13 -8 0 -5 7 -10 15 -10 8 0 15 4 15 8 0 5 9 18 20 30 12 12
16 22 10 22 -6 0 -13 -7 -16 -15z"/>
<path d="M2995 2440 c-18 -19 -17 -20 6 -19 13 0 18 3 11 6 -10 4 -10 8 -1 19
18 22 4 17 -16 -6z"/>
<path d="M3033 2445 c0 -8 4 -12 9 -9 4 3 8 9 8 15 0 5 -4 9 -8 9 -5 0 -9 -7
-9 -15z"/>
<path d="M3053 2431 c-23 -19 -24 -55 -2 -75 9 -8 9 -6 1 9 -12 25 3 69 21 62
8 -3 14 1 14 9 0 18 -7 17 -34 -5z"/>
<path d="M3115 2410 c3 -5 8 -10 11 -10 2 0 4 5 4 10 0 6 -5 10 -11 10 -5 0
-7 -4 -4 -10z"/>
<path d="M3135 2351 c-3 -5 -2 -12 3 -15 5 -3 9 1 9 9 0 17 -3 19 -12 6z"/>
<path d="M3716 1744 c-8 -20 -8 -24 2 -24 4 0 8 9 9 20 2 24 -3 26 -11 4z"/>
<path d="M3570 1729 c0 -5 5 -7 10 -4 6 3 10 8 10 11 0 2 -4 4 -10 4 -5 0 -10
-5 -10 -11z"/>
<path d="M3676 1732 c-3 -5 1 -9 9 -9 8 0 12 4 9 9 -3 4 -7 8 -9 8 -2 0 -6 -4
-9 -8z"/>
<path d="M3574 1692 c3 -5 1 -12 -6 -14 -8 -3 -9 -6 -1 -11 6 -4 13 0 17 8 3
8 0 17 -6 21 -6 4 -8 3 -4 -4z"/>
<path d="M3615 1690 c-3 -5 -1 -10 4 -10 6 0 11 5 11 10 0 6 -2 10 -4 10 -3 0
-8 -4 -11 -10z"/>
<path d="M3655 1670 c3 -5 8 -10 11 -10 2 0 4 5 4 10 0 6 -5 10 -11 10 -5 0
-7 -4 -4 -10z"/>
<path d="M3635 1639 c6 -33 15 -36 15 -6 0 15 -4 27 -9 27 -6 0 -8 -10 -6 -21z"/>
<path d="M3580 1596 c0 -2 8 -10 18 -17 15 -13 16 -12 3 4 -13 16 -21 21 -21
13z"/>
<path d="M3719 1565 c-1 -3 -2 -8 -3 -12 -1 -5 -5 -14 -9 -20 -6 -9 -3 -11 7
-7 8 3 14 14 13 25 -1 18 -5 25 -8 14z"/>
<path d="M3637 1523 c5 -12 3 -14 -8 -8 -12 8 -12 6 0 -8 12 -15 11 -20 -5
-40 -12 -13 -13 -17 -3 -9 9 6 18 10 20 7 3 -2 5 14 6 36 1 21 -2 39 -7 39 -5
0 -6 -7 -3 -17z"/>
<path d="M3673 1525 c0 -8 4 -12 9 -9 5 3 6 10 3 15 -9 13 -12 11 -12 -6z"/>
<path d="M3670 1490 c-8 -5 -10 -10 -5 -10 6 0 17 5 25 10 8 5 11 10 5 10 -5
0 -17 -5 -25 -10z"/>
<path d="M3581 1483 c-1 -17 16 -25 25 -12 4 7 3 9 -4 5 -5 -3 -13 0 -15 6 -4
9 -6 10 -6 1z"/>
<path d="M3476 1112 c-3 -5 1 -9 9 -9 8 0 12 4 9 9 -3 4 -7 8 -9 8 -2 0 -6 -4
-9 -8z"/>
<path d="M3435 1061 c-3 -5 -2 -12 3 -15 5 -3 9 1 9 9 0 17 -3 19 -12 6z"/>
<path d="M3435 1001 c-3 -5 -2 -12 3 -15 5 -3 9 1 9 9 0 17 -3 19 -12 6z"/>
<path d="M1488 793 c6 -2 12 -9 12 -14 0 -6 -5 -7 -12 -3 -7 5 -8 3 -3 -5 5
-9 11 -9 17 -3 12 12 2 32 -15 31 -9 0 -9 -2 1 -6z"/>
<path d="M1470 750 c0 -6 7 -10 15 -10 8 0 15 2 15 4 0 2 -7 6 -15 10 -8 3
-15 1 -15 -4z"/>
<path d="M1522 746 c7 -8 15 -12 17 -11 5 6 -10 25 -20 25 -5 0 -4 -6 3 -14z"/>
<path d="M1558 748 c-9 -5 -6 -7 9 -5 12 2 25 6 28 8 8 9 -23 6 -37 -3z"/>
<path d="M1510 731 c0 -6 4 -13 10 -16 6 -3 7 1 4 9 -7 18 -14 21 -14 7z"/>
<path d="M1566 715 c-11 -8 -15 -15 -9 -15 6 0 16 7 23 15 16 19 11 19 -14 0z"/>
<path d="M1475 710 c-3 -5 -2 -10 4 -10 5 0 13 5 16 10 3 6 2 10 -4 10 -5 0
-13 -4 -16 -10z"/>
<path d="M1449 698 c12 -16 9 -22 -12 -19 -4 1 -2 -8 5 -19 l13 -20 9 20 c7
16 5 25 -9 38 -18 16 -18 16 -6 0z"/>
<path d="M1495 690 c-3 -6 1 -13 9 -16 9 -3 14 -10 11 -14 -3 -5 0 -12 7 -16
7 -4 10 -3 5 1 -4 5 1 18 10 29 10 12 11 16 4 9 -15 -13 -44 -6 -35 8 3 5 3 9
0 9 -3 0 -8 -5 -11 -10z"/>
<path d="M1585 671 c3 -3 17 -6 31 -7 13 0 22 2 19 5 -3 3 -17 6 -31 7 -13 0
-22 -2 -19 -5z"/>
<path d="M1554 661 c4 -5 0 -11 -6 -14 -7 -3 -3 -4 9 -4 17 1 19 4 11 14 -12
15 -22 18 -14 4z"/>
<path d="M1595 610 c27 -12 43 -12 25 0 -8 5 -22 9 -30 9 -10 0 -8 -3 5 -9z"/>
<path d="M3036 577 c3 -10 9 -15 12 -12 3 3 0 11 -7 18 -10 9 -11 8 -5 -6z"/>
<path d="M2575 470 c3 -5 8 -10 11 -10 2 0 4 5 4 10 0 6 -5 10 -11 10 -5 0 -7
-4 -4 -10z"/>
<path d="M2634 457 c2 -13 6 -29 10 -35 4 -7 2 -12 -4 -12 -6 0 -8 -5 -4 -11
10 -17 25 12 15 29 -5 8 -6 23 -4 33 3 11 1 19 -5 19 -6 0 -9 -11 -8 -23z"/>
<path d="M2690 450 c0 -5 5 -10 11 -10 5 0 7 5 4 10 -3 6 -8 10 -11 10 -2 0
-4 -4 -4 -10z"/>
<path d="M2575 430 c-3 -5 -1 -10 4 -10 6 0 11 5 11 10 0 6 -2 10 -4 10 -3 0
-8 -4 -11 -10z"/>
<path d="M2715 410 c-3 -5 -1 -10 4 -10 6 0 11 5 11 10 0 6 -2 10 -4 10 -3 0
-8 -4 -11 -10z"/>
<path d="M2575 350 c3 -5 8 -10 11 -10 2 0 4 5 4 10 0 6 -5 10 -11 10 -5 0 -7
-4 -4 -10z"/>
<path d="M2646 349 c2 -4 -2 -10 -8 -12 -8 -4 -9 -6 -2 -6 6 -1 17 5 23 12 8
10 7 14 -4 14 -8 0 -12 -4 -9 -8z"/>
</g>
</svg>
